<mxfile host="app.diagrams.net" agent="Mozilla/5.0 (Windows NT 10.0; Win64; x64) AppleWebKit/537.36 (KHTML, like Gecko) Chrome/127.0.0.0 Safari/537.36" version="24.7.7">
  <diagram id="C5RBs43oDa-KdzZeNtuy" name="Page-1">
    <mxGraphModel dx="1114" dy="600" grid="1" gridSize="10" guides="1" tooltips="1" connect="1" arrows="1" fold="1" page="1" pageScale="1" pageWidth="827" pageHeight="1169" math="0" shadow="0">
      <root>
        <mxCell id="WIyWlLk6GJQsqaUBKTNV-0" />
        <mxCell id="WIyWlLk6GJQsqaUBKTNV-1" parent="WIyWlLk6GJQsqaUBKTNV-0" />
        <mxCell id="8XQm6HGaRp10iGghlWdX-2" value="" style="edgeStyle=orthogonalEdgeStyle;rounded=0;orthogonalLoop=1;jettySize=auto;html=1;" edge="1" parent="WIyWlLk6GJQsqaUBKTNV-1" source="WIyWlLk6GJQsqaUBKTNV-3" target="8XQm6HGaRp10iGghlWdX-1">
          <mxGeometry relative="1" as="geometry" />
        </mxCell>
        <mxCell id="WIyWlLk6GJQsqaUBKTNV-3" value="Início" style="rounded=1;whiteSpace=wrap;html=1;fontSize=12;glass=0;strokeWidth=1;shadow=0;" parent="WIyWlLk6GJQsqaUBKTNV-1" vertex="1">
          <mxGeometry x="50" y="10" width="120" height="40" as="geometry" />
        </mxCell>
        <mxCell id="WIyWlLk6GJQsqaUBKTNV-5" value="Não" style="edgeStyle=orthogonalEdgeStyle;rounded=0;html=1;jettySize=auto;orthogonalLoop=1;fontSize=11;endArrow=block;endFill=0;endSize=8;strokeWidth=1;shadow=0;labelBackgroundColor=none;" parent="WIyWlLk6GJQsqaUBKTNV-1" source="WIyWlLk6GJQsqaUBKTNV-6" target="WIyWlLk6GJQsqaUBKTNV-7" edge="1">
          <mxGeometry y="10" relative="1" as="geometry">
            <mxPoint as="offset" />
          </mxGeometry>
        </mxCell>
        <mxCell id="8XQm6HGaRp10iGghlWdX-5" value="" style="edgeStyle=orthogonalEdgeStyle;rounded=0;orthogonalLoop=1;jettySize=auto;html=1;" edge="1" parent="WIyWlLk6GJQsqaUBKTNV-1" source="WIyWlLk6GJQsqaUBKTNV-6" target="8XQm6HGaRp10iGghlWdX-4">
          <mxGeometry relative="1" as="geometry" />
        </mxCell>
        <mxCell id="WIyWlLk6GJQsqaUBKTNV-6" value="Campos obrigatórios preenchidos?" style="rhombus;whiteSpace=wrap;html=1;shadow=0;fontFamily=Helvetica;fontSize=12;align=center;strokeWidth=1;spacing=6;spacingTop=-4;" parent="WIyWlLk6GJQsqaUBKTNV-1" vertex="1">
          <mxGeometry x="55" y="140" width="110" height="90" as="geometry" />
        </mxCell>
        <mxCell id="WIyWlLk6GJQsqaUBKTNV-7" value="Mensagem: Campos obrigatórios não preenchidos." style="rounded=1;whiteSpace=wrap;html=1;fontSize=12;glass=0;strokeWidth=1;shadow=0;" parent="WIyWlLk6GJQsqaUBKTNV-1" vertex="1">
          <mxGeometry x="270" y="165" width="120" height="40" as="geometry" />
        </mxCell>
        <mxCell id="WIyWlLk6GJQsqaUBKTNV-8" value="Sim" style="rounded=0;html=1;jettySize=auto;orthogonalLoop=1;fontSize=11;endArrow=block;endFill=0;endSize=8;strokeWidth=1;shadow=0;labelBackgroundColor=none;edgeStyle=orthogonalEdgeStyle;" parent="WIyWlLk6GJQsqaUBKTNV-1" source="WIyWlLk6GJQsqaUBKTNV-10" target="WIyWlLk6GJQsqaUBKTNV-11" edge="1">
          <mxGeometry x="0.3333" y="20" relative="1" as="geometry">
            <mxPoint as="offset" />
          </mxGeometry>
        </mxCell>
        <mxCell id="WIyWlLk6GJQsqaUBKTNV-9" value="Não" style="edgeStyle=orthogonalEdgeStyle;rounded=0;html=1;jettySize=auto;orthogonalLoop=1;fontSize=11;endArrow=block;endFill=0;endSize=8;strokeWidth=1;shadow=0;labelBackgroundColor=none;" parent="WIyWlLk6GJQsqaUBKTNV-1" source="WIyWlLk6GJQsqaUBKTNV-10" target="WIyWlLk6GJQsqaUBKTNV-12" edge="1">
          <mxGeometry y="10" relative="1" as="geometry">
            <mxPoint as="offset" />
          </mxGeometry>
        </mxCell>
        <mxCell id="WIyWlLk6GJQsqaUBKTNV-10" value="Número da conta validado?" style="rhombus;whiteSpace=wrap;html=1;shadow=0;fontFamily=Helvetica;fontSize=12;align=center;strokeWidth=1;spacing=6;spacingTop=-4;" parent="WIyWlLk6GJQsqaUBKTNV-1" vertex="1">
          <mxGeometry x="60" y="310" width="100" height="80" as="geometry" />
        </mxCell>
        <mxCell id="8XQm6HGaRp10iGghlWdX-9" value="" style="edgeStyle=orthogonalEdgeStyle;rounded=0;orthogonalLoop=1;jettySize=auto;html=1;" edge="1" parent="WIyWlLk6GJQsqaUBKTNV-1" source="WIyWlLk6GJQsqaUBKTNV-11" target="8XQm6HGaRp10iGghlWdX-8">
          <mxGeometry relative="1" as="geometry" />
        </mxCell>
        <mxCell id="WIyWlLk6GJQsqaUBKTNV-11" value="Validar valor da transação" style="rounded=1;whiteSpace=wrap;html=1;fontSize=12;glass=0;strokeWidth=1;shadow=0;" parent="WIyWlLk6GJQsqaUBKTNV-1" vertex="1">
          <mxGeometry x="50" y="420" width="120" height="40" as="geometry" />
        </mxCell>
        <mxCell id="WIyWlLk6GJQsqaUBKTNV-12" value="Mensagem: Número de conta inválido. Notificação não enviada." style="rounded=1;whiteSpace=wrap;html=1;fontSize=12;glass=0;strokeWidth=1;shadow=0;" parent="WIyWlLk6GJQsqaUBKTNV-1" vertex="1">
          <mxGeometry x="270" y="320" width="120" height="60" as="geometry" />
        </mxCell>
        <mxCell id="8XQm6HGaRp10iGghlWdX-3" value="" style="edgeStyle=orthogonalEdgeStyle;rounded=0;orthogonalLoop=1;jettySize=auto;html=1;" edge="1" parent="WIyWlLk6GJQsqaUBKTNV-1" source="8XQm6HGaRp10iGghlWdX-1" target="WIyWlLk6GJQsqaUBKTNV-6">
          <mxGeometry relative="1" as="geometry" />
        </mxCell>
        <mxCell id="8XQm6HGaRp10iGghlWdX-1" value="Receber dados da transação" style="rounded=1;whiteSpace=wrap;html=1;fontSize=12;glass=0;strokeWidth=1;shadow=0;" vertex="1" parent="WIyWlLk6GJQsqaUBKTNV-1">
          <mxGeometry x="50" y="70" width="120" height="40" as="geometry" />
        </mxCell>
        <mxCell id="8XQm6HGaRp10iGghlWdX-7" value="" style="edgeStyle=orthogonalEdgeStyle;rounded=0;orthogonalLoop=1;jettySize=auto;html=1;" edge="1" parent="WIyWlLk6GJQsqaUBKTNV-1" source="8XQm6HGaRp10iGghlWdX-4" target="WIyWlLk6GJQsqaUBKTNV-10">
          <mxGeometry relative="1" as="geometry" />
        </mxCell>
        <mxCell id="8XQm6HGaRp10iGghlWdX-4" value="Validar número da conta" style="rounded=1;whiteSpace=wrap;html=1;fontSize=12;glass=0;strokeWidth=1;shadow=0;" vertex="1" parent="WIyWlLk6GJQsqaUBKTNV-1">
          <mxGeometry x="50" y="250" width="120" height="40" as="geometry" />
        </mxCell>
        <mxCell id="8XQm6HGaRp10iGghlWdX-13" value="" style="edgeStyle=orthogonalEdgeStyle;rounded=0;orthogonalLoop=1;jettySize=auto;html=1;" edge="1" parent="WIyWlLk6GJQsqaUBKTNV-1" source="8XQm6HGaRp10iGghlWdX-8" target="8XQm6HGaRp10iGghlWdX-12">
          <mxGeometry relative="1" as="geometry" />
        </mxCell>
        <mxCell id="8XQm6HGaRp10iGghlWdX-18" value="Não" style="edgeLabel;html=1;align=center;verticalAlign=middle;resizable=0;points=[];" vertex="1" connectable="0" parent="8XQm6HGaRp10iGghlWdX-13">
          <mxGeometry x="-0.3" y="1" relative="1" as="geometry">
            <mxPoint x="15" y="-14" as="offset" />
          </mxGeometry>
        </mxCell>
        <mxCell id="8XQm6HGaRp10iGghlWdX-15" value="" style="edgeStyle=orthogonalEdgeStyle;rounded=0;orthogonalLoop=1;jettySize=auto;html=1;" edge="1" parent="WIyWlLk6GJQsqaUBKTNV-1" source="8XQm6HGaRp10iGghlWdX-8" target="8XQm6HGaRp10iGghlWdX-14">
          <mxGeometry relative="1" as="geometry" />
        </mxCell>
        <mxCell id="8XQm6HGaRp10iGghlWdX-19" value="Não" style="edgeLabel;html=1;align=center;verticalAlign=middle;resizable=0;points=[];" vertex="1" connectable="0" parent="8XQm6HGaRp10iGghlWdX-15">
          <mxGeometry x="0.3455" y="-2" relative="1" as="geometry">
            <mxPoint x="22" as="offset" />
          </mxGeometry>
        </mxCell>
        <mxCell id="8XQm6HGaRp10iGghlWdX-8" value="Valor corresponde ao valor registrado?" style="rhombus;whiteSpace=wrap;html=1;shadow=0;fontFamily=Helvetica;fontSize=12;align=center;strokeWidth=1;spacing=6;spacingTop=-4;" vertex="1" parent="WIyWlLk6GJQsqaUBKTNV-1">
          <mxGeometry x="50" y="485" width="120" height="100" as="geometry" />
        </mxCell>
        <mxCell id="8XQm6HGaRp10iGghlWdX-12" value="Mensagem: Valor incorreto. Notificação não enviada." style="rounded=1;whiteSpace=wrap;html=1;fontSize=12;glass=0;strokeWidth=1;shadow=0;" vertex="1" parent="WIyWlLk6GJQsqaUBKTNV-1">
          <mxGeometry x="270" y="502.5" width="120" height="65" as="geometry" />
        </mxCell>
        <mxCell id="8XQm6HGaRp10iGghlWdX-17" value="" style="edgeStyle=orthogonalEdgeStyle;rounded=0;orthogonalLoop=1;jettySize=auto;html=1;" edge="1" parent="WIyWlLk6GJQsqaUBKTNV-1" source="8XQm6HGaRp10iGghlWdX-14" target="8XQm6HGaRp10iGghlWdX-16">
          <mxGeometry relative="1" as="geometry" />
        </mxCell>
        <mxCell id="8XQm6HGaRp10iGghlWdX-14" value="Validar tipo de transação" style="rounded=1;whiteSpace=wrap;html=1;fontSize=12;glass=0;strokeWidth=1;shadow=0;" vertex="1" parent="WIyWlLk6GJQsqaUBKTNV-1">
          <mxGeometry x="50" y="610" width="120" height="40" as="geometry" />
        </mxCell>
        <mxCell id="8XQm6HGaRp10iGghlWdX-21" value="" style="edgeStyle=orthogonalEdgeStyle;rounded=0;orthogonalLoop=1;jettySize=auto;html=1;" edge="1" parent="WIyWlLk6GJQsqaUBKTNV-1" source="8XQm6HGaRp10iGghlWdX-16" target="8XQm6HGaRp10iGghlWdX-20">
          <mxGeometry relative="1" as="geometry" />
        </mxCell>
        <mxCell id="8XQm6HGaRp10iGghlWdX-22" value="Não" style="edgeLabel;html=1;align=center;verticalAlign=middle;resizable=0;points=[];" vertex="1" connectable="0" parent="8XQm6HGaRp10iGghlWdX-21">
          <mxGeometry x="0.02" y="3" relative="1" as="geometry">
            <mxPoint y="-7" as="offset" />
          </mxGeometry>
        </mxCell>
        <mxCell id="8XQm6HGaRp10iGghlWdX-24" value="" style="edgeStyle=orthogonalEdgeStyle;rounded=0;orthogonalLoop=1;jettySize=auto;html=1;" edge="1" parent="WIyWlLk6GJQsqaUBKTNV-1" source="8XQm6HGaRp10iGghlWdX-16" target="8XQm6HGaRp10iGghlWdX-23">
          <mxGeometry relative="1" as="geometry" />
        </mxCell>
        <mxCell id="8XQm6HGaRp10iGghlWdX-25" value="Sim" style="edgeLabel;html=1;align=center;verticalAlign=middle;resizable=0;points=[];" vertex="1" connectable="0" parent="8XQm6HGaRp10iGghlWdX-24">
          <mxGeometry x="0.4" y="-3" relative="1" as="geometry">
            <mxPoint x="23" y="-5" as="offset" />
          </mxGeometry>
        </mxCell>
        <mxCell id="8XQm6HGaRp10iGghlWdX-16" value="Tipo de transação reconhecido?" style="rhombus;whiteSpace=wrap;html=1;shadow=0;fontFamily=Helvetica;fontSize=12;align=center;strokeWidth=1;spacing=6;spacingTop=-4;" vertex="1" parent="WIyWlLk6GJQsqaUBKTNV-1">
          <mxGeometry x="50" y="670" width="120" height="100" as="geometry" />
        </mxCell>
        <mxCell id="8XQm6HGaRp10iGghlWdX-20" value="Mensagem: Tipo de transação não reconhecido. Notificação não enviada." style="rounded=1;whiteSpace=wrap;html=1;fontSize=12;glass=0;strokeWidth=1;shadow=0;" vertex="1" parent="WIyWlLk6GJQsqaUBKTNV-1">
          <mxGeometry x="270" y="683.75" width="120" height="72.5" as="geometry" />
        </mxCell>
        <mxCell id="8XQm6HGaRp10iGghlWdX-27" value="" style="edgeStyle=orthogonalEdgeStyle;rounded=0;orthogonalLoop=1;jettySize=auto;html=1;" edge="1" parent="WIyWlLk6GJQsqaUBKTNV-1" source="8XQm6HGaRp10iGghlWdX-23" target="8XQm6HGaRp10iGghlWdX-26">
          <mxGeometry relative="1" as="geometry" />
        </mxCell>
        <mxCell id="8XQm6HGaRp10iGghlWdX-23" value="Validar status de transação" style="rounded=1;whiteSpace=wrap;html=1;fontSize=12;glass=0;strokeWidth=1;shadow=0;" vertex="1" parent="WIyWlLk6GJQsqaUBKTNV-1">
          <mxGeometry x="50" y="800" width="120" height="40" as="geometry" />
        </mxCell>
        <mxCell id="8XQm6HGaRp10iGghlWdX-29" value="" style="edgeStyle=orthogonalEdgeStyle;rounded=0;orthogonalLoop=1;jettySize=auto;html=1;" edge="1" parent="WIyWlLk6GJQsqaUBKTNV-1" source="8XQm6HGaRp10iGghlWdX-26" target="8XQm6HGaRp10iGghlWdX-28">
          <mxGeometry relative="1" as="geometry" />
        </mxCell>
        <mxCell id="8XQm6HGaRp10iGghlWdX-30" value="Não" style="edgeLabel;html=1;align=center;verticalAlign=middle;resizable=0;points=[];" vertex="1" connectable="0" parent="8XQm6HGaRp10iGghlWdX-29">
          <mxGeometry x="-0.1608" y="-1" relative="1" as="geometry">
            <mxPoint x="8" y="-11" as="offset" />
          </mxGeometry>
        </mxCell>
        <mxCell id="8XQm6HGaRp10iGghlWdX-293" value="" style="edgeStyle=orthogonalEdgeStyle;rounded=0;orthogonalLoop=1;jettySize=auto;html=1;" edge="1" parent="WIyWlLk6GJQsqaUBKTNV-1" source="8XQm6HGaRp10iGghlWdX-26" target="8XQm6HGaRp10iGghlWdX-292">
          <mxGeometry relative="1" as="geometry" />
        </mxCell>
        <mxCell id="8XQm6HGaRp10iGghlWdX-26" value="Status da transação válido?" style="rhombus;whiteSpace=wrap;html=1;shadow=0;fontFamily=Helvetica;fontSize=12;align=center;strokeWidth=1;spacing=6;spacingTop=-4;" vertex="1" parent="WIyWlLk6GJQsqaUBKTNV-1">
          <mxGeometry x="50" y="870" width="120" height="100" as="geometry" />
        </mxCell>
        <mxCell id="8XQm6HGaRp10iGghlWdX-28" value="Mensagem: Status da transação incorreto. Notificação não enviada." style="rounded=1;whiteSpace=wrap;html=1;fontSize=12;glass=0;strokeWidth=1;shadow=0;" vertex="1" parent="WIyWlLk6GJQsqaUBKTNV-1">
          <mxGeometry x="270" y="883.75" width="120" height="72.5" as="geometry" />
        </mxCell>
        <mxCell id="8XQm6HGaRp10iGghlWdX-297" value="" style="edgeStyle=orthogonalEdgeStyle;rounded=0;orthogonalLoop=1;jettySize=auto;html=1;" edge="1" parent="WIyWlLk6GJQsqaUBKTNV-1" source="8XQm6HGaRp10iGghlWdX-292" target="8XQm6HGaRp10iGghlWdX-296">
          <mxGeometry relative="1" as="geometry" />
        </mxCell>
        <mxCell id="8XQm6HGaRp10iGghlWdX-292" value="Validar data e hora da transação" style="rounded=1;whiteSpace=wrap;html=1;fontSize=12;glass=0;strokeWidth=1;shadow=0;" vertex="1" parent="WIyWlLk6GJQsqaUBKTNV-1">
          <mxGeometry x="50" y="1000" width="120" height="40" as="geometry" />
        </mxCell>
        <mxCell id="8XQm6HGaRp10iGghlWdX-299" value="" style="edgeStyle=orthogonalEdgeStyle;rounded=0;orthogonalLoop=1;jettySize=auto;html=1;" edge="1" parent="WIyWlLk6GJQsqaUBKTNV-1" source="8XQm6HGaRp10iGghlWdX-296" target="8XQm6HGaRp10iGghlWdX-298">
          <mxGeometry relative="1" as="geometry" />
        </mxCell>
        <mxCell id="8XQm6HGaRp10iGghlWdX-296" value="Validar data e hora da transação" style="rounded=1;whiteSpace=wrap;html=1;fontSize=12;glass=0;strokeWidth=1;shadow=0;" vertex="1" parent="WIyWlLk6GJQsqaUBKTNV-1">
          <mxGeometry x="414" y="40" width="120" height="40" as="geometry" />
        </mxCell>
        <mxCell id="8XQm6HGaRp10iGghlWdX-301" value="" style="edgeStyle=orthogonalEdgeStyle;rounded=0;orthogonalLoop=1;jettySize=auto;html=1;" edge="1" parent="WIyWlLk6GJQsqaUBKTNV-1" source="8XQm6HGaRp10iGghlWdX-298" target="8XQm6HGaRp10iGghlWdX-300">
          <mxGeometry relative="1" as="geometry" />
        </mxCell>
        <mxCell id="8XQm6HGaRp10iGghlWdX-302" value="Não" style="edgeLabel;html=1;align=center;verticalAlign=middle;resizable=0;points=[];" vertex="1" connectable="0" parent="8XQm6HGaRp10iGghlWdX-301">
          <mxGeometry x="-0.04" y="-2" relative="1" as="geometry">
            <mxPoint y="-12" as="offset" />
          </mxGeometry>
        </mxCell>
        <mxCell id="8XQm6HGaRp10iGghlWdX-304" value="" style="edgeStyle=orthogonalEdgeStyle;rounded=0;orthogonalLoop=1;jettySize=auto;html=1;" edge="1" parent="WIyWlLk6GJQsqaUBKTNV-1" source="8XQm6HGaRp10iGghlWdX-298" target="8XQm6HGaRp10iGghlWdX-303">
          <mxGeometry relative="1" as="geometry" />
        </mxCell>
        <mxCell id="8XQm6HGaRp10iGghlWdX-305" value="Sim" style="edgeLabel;html=1;align=center;verticalAlign=middle;resizable=0;points=[];" vertex="1" connectable="0" parent="8XQm6HGaRp10iGghlWdX-304">
          <mxGeometry x="0.1556" y="-1" relative="1" as="geometry">
            <mxPoint x="16" y="-1" as="offset" />
          </mxGeometry>
        </mxCell>
        <mxCell id="8XQm6HGaRp10iGghlWdX-298" value="Data e hora válidas?" style="rhombus;whiteSpace=wrap;html=1;shadow=0;fontFamily=Helvetica;fontSize=12;align=center;strokeWidth=1;spacing=6;spacingTop=-4;" vertex="1" parent="WIyWlLk6GJQsqaUBKTNV-1">
          <mxGeometry x="580" y="15" width="110" height="90" as="geometry" />
        </mxCell>
        <mxCell id="8XQm6HGaRp10iGghlWdX-300" value="Mensagem: Data e hora inválidas. Notificação não enviada." style="rounded=1;whiteSpace=wrap;html=1;fontSize=12;glass=0;strokeWidth=1;shadow=0;" vertex="1" parent="WIyWlLk6GJQsqaUBKTNV-1">
          <mxGeometry x="740" y="30" width="120" height="60" as="geometry" />
        </mxCell>
        <mxCell id="8XQm6HGaRp10iGghlWdX-307" value="" style="edgeStyle=orthogonalEdgeStyle;rounded=0;orthogonalLoop=1;jettySize=auto;html=1;" edge="1" parent="WIyWlLk6GJQsqaUBKTNV-1" source="8XQm6HGaRp10iGghlWdX-303" target="8XQm6HGaRp10iGghlWdX-306">
          <mxGeometry relative="1" as="geometry" />
        </mxCell>
        <mxCell id="8XQm6HGaRp10iGghlWdX-303" value="Validar método de notificação" style="rounded=1;whiteSpace=wrap;html=1;fontSize=12;glass=0;strokeWidth=1;shadow=0;" vertex="1" parent="WIyWlLk6GJQsqaUBKTNV-1">
          <mxGeometry x="575" y="140" width="120" height="40" as="geometry" />
        </mxCell>
        <mxCell id="8XQm6HGaRp10iGghlWdX-309" value="Não" style="edgeStyle=orthogonalEdgeStyle;rounded=0;orthogonalLoop=1;jettySize=auto;html=1;" edge="1" parent="WIyWlLk6GJQsqaUBKTNV-1" source="8XQm6HGaRp10iGghlWdX-306" target="8XQm6HGaRp10iGghlWdX-308">
          <mxGeometry x="-0.2" y="15" relative="1" as="geometry">
            <mxPoint as="offset" />
          </mxGeometry>
        </mxCell>
        <mxCell id="8XQm6HGaRp10iGghlWdX-313" value="" style="edgeStyle=orthogonalEdgeStyle;rounded=0;orthogonalLoop=1;jettySize=auto;html=1;" edge="1" parent="WIyWlLk6GJQsqaUBKTNV-1" source="8XQm6HGaRp10iGghlWdX-306" target="8XQm6HGaRp10iGghlWdX-312">
          <mxGeometry relative="1" as="geometry" />
        </mxCell>
        <mxCell id="8XQm6HGaRp10iGghlWdX-314" value="Sim" style="edgeLabel;html=1;align=center;verticalAlign=middle;resizable=0;points=[];" vertex="1" connectable="0" parent="8XQm6HGaRp10iGghlWdX-313">
          <mxGeometry x="-0.2" y="-2" relative="1" as="geometry">
            <mxPoint x="17" as="offset" />
          </mxGeometry>
        </mxCell>
        <mxCell id="8XQm6HGaRp10iGghlWdX-306" value="Método de notificação permitido?" style="rhombus;whiteSpace=wrap;html=1;shadow=0;fontFamily=Helvetica;fontSize=12;align=center;strokeWidth=1;spacing=6;spacingTop=-4;" vertex="1" parent="WIyWlLk6GJQsqaUBKTNV-1">
          <mxGeometry x="580" y="220" width="110" height="90" as="geometry" />
        </mxCell>
        <mxCell id="8XQm6HGaRp10iGghlWdX-308" value="Mensagem: Método de notificação não permitido. Notificação não enviada." style="rounded=1;whiteSpace=wrap;html=1;fontSize=12;glass=0;strokeWidth=1;shadow=0;" vertex="1" parent="WIyWlLk6GJQsqaUBKTNV-1">
          <mxGeometry x="740" y="235" width="120" height="60" as="geometry" />
        </mxCell>
        <mxCell id="8XQm6HGaRp10iGghlWdX-316" value="" style="edgeStyle=orthogonalEdgeStyle;rounded=0;orthogonalLoop=1;jettySize=auto;html=1;" edge="1" parent="WIyWlLk6GJQsqaUBKTNV-1" source="8XQm6HGaRp10iGghlWdX-312" target="8XQm6HGaRp10iGghlWdX-315">
          <mxGeometry relative="1" as="geometry" />
        </mxCell>
        <mxCell id="8XQm6HGaRp10iGghlWdX-312" value="Enviar notificação" style="rounded=1;whiteSpace=wrap;html=1;fontSize=12;glass=0;strokeWidth=1;shadow=0;" vertex="1" parent="WIyWlLk6GJQsqaUBKTNV-1">
          <mxGeometry x="575" y="350" width="120" height="40" as="geometry" />
        </mxCell>
        <mxCell id="8XQm6HGaRp10iGghlWdX-318" value="" style="edgeStyle=orthogonalEdgeStyle;rounded=0;orthogonalLoop=1;jettySize=auto;html=1;" edge="1" parent="WIyWlLk6GJQsqaUBKTNV-1" source="8XQm6HGaRp10iGghlWdX-315" target="8XQm6HGaRp10iGghlWdX-317">
          <mxGeometry relative="1" as="geometry" />
        </mxCell>
        <mxCell id="8XQm6HGaRp10iGghlWdX-315" value="Registrar data e hora de envio" style="rounded=1;whiteSpace=wrap;html=1;fontSize=12;glass=0;strokeWidth=1;shadow=0;" vertex="1" parent="WIyWlLk6GJQsqaUBKTNV-1">
          <mxGeometry x="575" y="430" width="120" height="40" as="geometry" />
        </mxCell>
        <mxCell id="8XQm6HGaRp10iGghlWdX-321" value="" style="edgeStyle=orthogonalEdgeStyle;rounded=0;orthogonalLoop=1;jettySize=auto;html=1;" edge="1" parent="WIyWlLk6GJQsqaUBKTNV-1" source="8XQm6HGaRp10iGghlWdX-317" target="8XQm6HGaRp10iGghlWdX-319">
          <mxGeometry relative="1" as="geometry" />
        </mxCell>
        <mxCell id="8XQm6HGaRp10iGghlWdX-317" value="Mostrar mensagem: Notificação enviada" style="rounded=1;whiteSpace=wrap;html=1;fontSize=12;glass=0;strokeWidth=1;shadow=0;" vertex="1" parent="WIyWlLk6GJQsqaUBKTNV-1">
          <mxGeometry x="575" y="515" width="120" height="40" as="geometry" />
        </mxCell>
        <mxCell id="8XQm6HGaRp10iGghlWdX-319" value="Fim" style="rounded=1;whiteSpace=wrap;html=1;fontSize=12;glass=0;strokeWidth=1;shadow=0;" vertex="1" parent="WIyWlLk6GJQsqaUBKTNV-1">
          <mxGeometry x="575" y="585" width="120" height="40" as="geometry" />
        </mxCell>
      </root>
    </mxGraphModel>
  </diagram>
</mxfile>
